<svg id="Layer_1" data-name="Layer 1" xmlns="http://www.w3.org/2000/svg" viewBox="0 0 150.91 201.18"><title>stellr-logo-white</title><path d="M113.65,104c-25.45-16.4-50.94-16.3-76.92-.39C35.09,93,34.38,82.41,39.65,72.43A19.17,19.17,0,0,1,45,65.94c2.46-1.77,2.93-3.79,3.18-6.46,1.35-14.75,4.45-29,12-42A50.53,50.53,0,0,1,75.05,1.14c2.28-1.58,4.1-1.49,6.29.11C88.49,6.48,93.44,13.39,97,21.36c5.66,12.63,7.6,26.05,7.95,39.75a5.27,5.27,0,0,0,2.35,4.75c3.46,2.52,5.4,6.26,6.76,10.29C116.62,83.64,116.37,97.93,113.65,104ZM84.75,55.39a11.59,11.59,0,0,0,.68-16.57A11.79,11.79,0,0,0,68.37,55.09,11.54,11.54,0,0,0,84.75,55.39Z" style="fill:#fff"/><path d="M115.64,35.46c.31,1.9.59,3.72.8,5.1q.56,3.07,1.09,6.13,1,5.61,1.94,11.24a62.09,62.09,0,0,1,12.92,21.58c8.26,24-.56,52.36-21,67.41-.7.51-1.46.94-2.2,1.4l-.9-.22a15.78,15.78,0,0,0,.56-2.68q.44-12.76.73-25.52c0-.92-.11-2.22-.7-2.71-4.28-3.59-8.68-7-14.37-8.93-.59,21.47-1.18,42.78-1.77,64.15,26.78-5.92,54.06-31.1,57.75-66.42C154.07,71.78,134,45.27,115.64,35.46Z" style="fill:#fff"/><path d="M41.38,116.54a4.48,4.48,0,0,0-1.45,2.84c-.26,3.83-.26,7.67-.37,11.51-.16,5.48-.33,11-.52,16.9a16.25,16.25,0,0,1-2.1-1.44,119.5,119.5,0,0,1-8.55-8.75C9.78,114.67,11.36,80.41,32,59.33a17.34,17.34,0,0,0,2.81-3.67q.76-4.52,1.56-9,1-5.9,2.13-11.79C14.93,47.9-5,78.18,1.11,114c5.36,31.54,30.21,52.86,52.73,58C54.42,150.72,55,129.5,55.59,108A44.94,44.94,0,0,0,41.38,116.54Z" style="fill:#fff"/><path d="M81.92,104.66c.08,9.47.36,18.31.17,27.14-.41,20-1,40-1.68,60A13.17,13.17,0,0,1,78.75,198a7.3,7.3,0,0,1-8.63,2.79A7.4,7.4,0,0,1,65,193.22c.15-8,.39-16,.61-24,.57-20.68,1.18-41.37,1.68-62,.05-1.74.57-2.42,2.25-2.42C73.89,104.73,78.21,104.68,81.92,104.66Z" style="fill:#fff"/></svg>